<svg width="136" height="152" viewBox="0 0 136 152" fill="none" xmlns="http://www.w3.org/2000/svg">
<path d="M26.8287 99.375H108.104M26.8287 99.375L67.0677 30.6163M26.8287 99.375L2.12749 43.7321M26.8287 99.375L2.12749 114.875M26.8287 99.375L61.0916 146.274M108.104 99.375L67.0677 30.6163M108.104 99.375C114.877 84.1394 128.422 55.6556 134 43.7321M108.104 99.375L134 114.875M108.104 99.375L71.8486 148.659M67.0677 30.6163C49.5379 32.4711 12.8844 35.7831 5.31474 35.7831M67.0677 30.6163V2M67.0677 30.6163L129.219 35.7831M2.12749 43.7321C1.72908 39.3602 2.12749 38.1678 5.31474 35.7831M2.12749 43.7321V114.875M5.31474 35.7831L67.0677 2M67.0677 2L129.219 35.7831M129.219 35.7831C134 38.5653 134 39.3602 134 43.7321M134 43.7321V114.875M134 114.875L71.8486 148.659M71.8486 148.659C67.0677 151.043 64.2789 150.248 61.0916 146.274M2.12749 114.875L61.0916 146.274" stroke="#8F624F" stroke-width="3"/>
</svg>
