<svg width="55" height="62" viewBox="0 0 55 62" fill="none" xmlns="http://www.w3.org/2000/svg">
<path d="M11.5929 40.1605H42.9946M11.5929 40.1605L27.1398 13.2145M11.5929 40.1605L2.04926 18.3545M11.5929 40.1605L2.04926 46.235M11.5929 40.1605L24.8309 58.5398M42.9946 40.1605L27.1398 13.2145M42.9946 40.1605C45.6114 34.1898 50.845 23.0272 53 18.3545M42.9946 40.1605L53 46.235M42.9946 40.1605L28.987 59.4743M27.1398 13.2145C20.3669 13.9414 6.20536 15.2393 3.2807 15.2393M27.1398 13.2145V2M27.1398 13.2145L51.1528 15.2393M2.04926 18.3545C1.89533 16.6412 2.04926 16.1739 3.2807 15.2393M2.04926 18.3545V46.235M3.2807 15.2393L27.1398 2M27.1398 2L51.1528 15.2393M51.1528 15.2393C53 16.3296 53 16.6412 53 18.3545M53 18.3545V46.235M53 46.235L28.987 59.4743M28.987 59.4743C27.1398 60.4089 26.0623 60.0973 24.8309 58.5398M2.04926 46.235L24.8309 58.5398" stroke="#8F624F" stroke-width="3"/>
</svg>
