<svg width="136" height="152" viewBox="0 0 136 152" fill="none" xmlns="http://www.w3.org/2000/svg">
<path d="M26.8287 99.375H108.104M26.8287 99.375L67.0677 30.6163M26.8287 99.375L2.12749 43.7321M26.8287 99.375L2.12749 114.875M26.8287 99.375L61.0916 146.274M108.104 99.375L67.0677 30.6163M108.104 99.375C114.877 84.1394 128.422 55.6556 134 43.7321M108.104 99.375L134 114.875M108.104 99.375L71.8486 148.659M67.0677 30.6163C49.5379 32.4711 12.8844 35.7831 5.31474 35.7831M67.0677 30.6163V2M67.0677 30.6163L129.219 35.7831M2.12749 43.7321C1.72908 39.3602 2.12749 38.1678 5.31474 35.7831M2.12749 43.7321V114.875M5.31474 35.7831L67.0677 2M67.0677 2L129.219 35.7831M129.219 35.7831C134 38.5653 134 39.3602 134 43.7321M134 43.7321V114.875M134 114.875L71.8486 148.659M71.8486 148.659C67.0677 151.043 64.2789 150.248 61.0916 146.274M2.12749 114.875L61.0916 146.274" stroke="#8F624F" stroke-width="3"/>
<path d="M55.9932 75.2598C55.9489 75.3483 55.9268 75.4368 55.9268 75.5254C55.9489 75.6139 55.96 75.7135 55.96 75.8242C55.9157 76.0898 55.9157 76.2227 55.96 76.2227C56.0042 76.2227 56.0264 76.2448 56.0264 76.2891L55.7939 76.6211C55.7939 76.7539 55.7607 76.8757 55.6943 76.9863C55.6501 77.097 55.639 77.2298 55.6611 77.3848C55.5947 77.4954 55.5283 77.6061 55.4619 77.7168C55.4176 77.8275 55.3402 77.9382 55.2295 78.0488H54.7979C54.5544 78.0488 54.2887 78.071 54.001 78.1152C53.7354 78.1374 53.4697 78.1484 53.2041 78.1484C53.1598 78.1484 53.1045 78.1484 53.0381 78.1484C52.9717 78.1263 52.9053 78.1152 52.8389 78.1152C52.7946 78.1152 52.7393 78.1263 52.6729 78.1484C52.6064 78.1484 52.529 78.1484 52.4404 78.1484C52.1084 78.1484 51.7764 78.1374 51.4443 78.1152C51.1344 78.071 50.8024 78.0488 50.4482 78.0488C50.3597 78.0488 50.2712 78.0488 50.1826 78.0488C50.0941 78.0488 49.9945 78.0599 49.8838 78.082C49.8617 78.4583 49.8395 78.8457 49.8174 79.2441C49.8174 79.6204 49.8174 80.0078 49.8174 80.4062C49.8174 80.5169 49.8063 80.6387 49.7842 80.7715C49.762 80.8822 49.751 80.9928 49.751 81.1035C49.7288 81.3913 49.7067 81.668 49.6846 81.9336C49.6846 82.1992 49.6846 82.4759 49.6846 82.7637C49.6846 83.3835 49.6846 84.0033 49.6846 84.623C49.7067 85.2428 49.7288 85.8737 49.751 86.5156C49.7731 86.8477 49.7952 87.1686 49.8174 87.4785C49.8395 87.7884 49.8506 88.1094 49.8506 88.4414C49.8506 89.194 49.8395 89.9466 49.8174 90.6992C49.7952 91.4297 49.7842 92.1712 49.7842 92.9238C49.7842 93.1673 49.7731 93.3997 49.751 93.6211C49.7288 93.8203 49.7178 94.0417 49.7178 94.2852C49.7178 94.7943 49.7288 95.3034 49.751 95.8125C49.7731 96.3216 49.7842 96.8307 49.7842 97.3398C49.7842 97.5833 49.7731 97.8268 49.751 98.0703C49.751 98.3138 49.751 98.5573 49.751 98.8008C49.6403 98.9779 49.5628 99.1328 49.5186 99.2656C49.4743 99.3984 49.3415 99.4648 49.1201 99.4648C48.9652 99.4206 48.8877 99.3652 48.8877 99.2988C48.9098 99.2546 48.8988 99.2103 48.8545 99.166C48.6553 99.1439 48.5003 99.1549 48.3896 99.1992C48.3011 99.2656 48.1904 99.321 48.0576 99.3652C47.9912 99.3431 47.9137 99.332 47.8252 99.332C47.7588 99.332 47.6924 99.332 47.626 99.332C47.5817 99.332 47.5374 99.3431 47.4932 99.3652C47.4489 99.4095 47.3493 99.4316 47.1943 99.4316C47.0615 99.4538 46.984 99.4316 46.9619 99.3652C46.9398 99.2988 46.8734 99.2656 46.7627 99.2656C46.652 99.332 46.5192 99.3763 46.3643 99.3984C46.2314 99.4427 46.0986 99.4648 45.9658 99.4648C45.833 99.3763 45.7666 99.2878 45.7666 99.1992C45.7887 99.1328 45.7777 99.0553 45.7334 98.9668C45.7113 98.9225 45.667 98.8672 45.6006 98.8008C45.5563 98.7122 45.512 98.6458 45.4678 98.6016C45.512 98.2917 45.5452 98.015 45.5674 97.7715C45.5895 97.528 45.6006 97.2624 45.6006 96.9746C45.6006 96.3991 45.5785 95.8346 45.5342 95.2812C45.4899 94.7279 45.4678 94.1634 45.4678 93.5879C45.4678 93.4108 45.4899 93.2227 45.5342 93.0234C45.5785 92.8242 45.6006 92.6139 45.6006 92.3926C45.5563 92.2155 45.5452 92.1159 45.5674 92.0938C45.5895 92.0495 45.6006 92.0052 45.6006 91.9609C45.6006 91.8281 45.5895 91.6953 45.5674 91.5625C45.5674 91.4297 45.5674 91.2969 45.5674 91.1641C45.5674 90.8984 45.5674 90.6328 45.5674 90.3672C45.5895 90.1016 45.6006 89.8359 45.6006 89.5703C45.6006 89.4596 45.5895 89.349 45.5674 89.2383C45.5674 89.1055 45.5674 88.9837 45.5674 88.873C45.5452 88.6738 45.5342 88.4635 45.5342 88.2422C45.5563 88.0208 45.5674 87.7995 45.5674 87.5781C45.5674 86.5156 45.5452 85.4642 45.501 84.4238C45.4788 83.3835 45.4678 82.332 45.4678 81.2695C45.4678 80.7604 45.4899 80.2402 45.5342 79.709C45.6006 79.1777 45.6338 78.6465 45.6338 78.1152C45.6338 78.0488 45.6117 77.9603 45.5674 77.8496C45.5231 77.7389 45.4788 77.6615 45.4346 77.6172C45.3239 77.6172 45.2132 77.6172 45.1025 77.6172C45.014 77.5951 44.9144 77.584 44.8037 77.584C44.5602 77.584 44.3278 77.6172 44.1064 77.6836C43.6859 77.7057 43.2764 77.7389 42.8779 77.7832C42.5016 77.8053 42.1143 77.8275 41.7158 77.8496C41.4502 77.8275 41.2842 77.8275 41.2178 77.8496C41.1735 77.8496 41.1182 77.8496 41.0518 77.8496C40.8747 77.8496 40.7419 77.8053 40.6533 77.7168V77.2852C40.5205 77.0195 40.4652 76.8757 40.4873 76.8535C40.5094 76.8314 40.5205 76.7982 40.5205 76.7539C40.5205 76.6875 40.4652 76.6211 40.3545 76.5547C40.2217 76.4661 40.1553 76.3333 40.1553 76.1562C40.1331 75.9792 40.0889 75.8464 40.0225 75.7578C39.9561 75.6693 39.9229 75.5807 39.9229 75.4922C39.9229 75.3372 39.9561 75.1602 40.0225 74.9609C40.2217 74.8503 40.4098 74.7728 40.5869 74.7285C40.7861 74.6842 41.0075 74.6289 41.251 74.5625C41.3838 74.5182 41.5055 74.474 41.6162 74.4297C41.7269 74.3854 41.8486 74.3522 41.9814 74.3301C42.1364 74.3079 42.2913 74.2969 42.4463 74.2969C42.6012 74.2969 42.7562 74.2858 42.9111 74.2637C43.2432 74.1973 43.5863 74.1419 43.9404 74.0977C44.3167 74.0534 44.6709 74.0312 45.0029 74.0312C45.3128 74.0312 45.6227 74.0755 45.9326 74.1641C46.2425 74.2305 46.5192 74.2637 46.7627 74.2637C47.1169 74.2637 47.4489 74.2858 47.7588 74.3301C48.0908 74.3743 48.4339 74.3965 48.7881 74.3965C48.8324 74.3965 48.8988 74.4186 48.9873 74.4629C49.098 74.485 49.2197 74.4961 49.3525 74.4961H52.5732C52.7503 74.5404 52.8721 74.5514 52.9385 74.5293C53.027 74.5072 53.1045 74.4961 53.1709 74.4961C53.348 74.4961 53.514 74.5072 53.6689 74.5293C53.8239 74.5514 53.9899 74.5625 54.167 74.5625C54.3219 74.5625 54.4437 74.5514 54.5322 74.5293C54.7093 74.5514 54.8753 74.6068 55.0303 74.6953C55.1852 74.7617 55.3623 74.7949 55.5615 74.7949C55.6501 74.8613 55.7165 74.9499 55.7607 75.0605C55.805 75.1491 55.8825 75.2155 55.9932 75.2598ZM73.6904 85.8184C73.6462 85.9069 73.6019 85.9954 73.5576 86.084C73.5133 86.1504 73.4801 86.2279 73.458 86.3164C73.5465 86.4049 73.624 86.5046 73.6904 86.6152C73.779 86.7038 73.8232 86.8034 73.8232 86.9141C73.8232 87.0026 73.8011 87.0911 73.7568 87.1797C73.7347 87.2461 73.7347 87.3125 73.7568 87.3789C73.6683 87.5339 73.5687 87.6777 73.458 87.8105C73.3695 87.9434 73.3031 88.0872 73.2588 88.2422C73.1702 88.3307 73.0928 88.4193 73.0264 88.5078C72.9821 88.5964 72.9378 88.6849 72.8936 88.7734C72.7829 88.8177 72.7054 88.8952 72.6611 89.0059C72.639 89.0944 72.5837 89.1719 72.4951 89.2383C72.473 89.3268 72.3623 89.5371 72.1631 89.8691C71.9639 90.2012 71.7425 90.5553 71.499 90.9316C71.2555 91.3079 71.0231 91.6732 70.8018 92.0273C70.5804 92.3815 70.4255 92.6139 70.3369 92.7246C70.2926 92.8353 70.2373 92.9238 70.1709 92.9902C70.1266 93.0566 70.0713 93.1341 70.0049 93.2227C69.9606 93.2891 69.9274 93.3665 69.9053 93.4551C69.8831 93.5215 69.8499 93.5768 69.8057 93.6211C69.7614 93.7096 69.7061 93.7871 69.6396 93.8535C69.5954 93.9199 69.5511 94.0085 69.5068 94.1191C69.2855 94.4069 69.0641 94.75 68.8428 95.1484C68.6214 95.5469 68.4111 95.901 68.2119 96.2109C68.1012 96.388 67.9906 96.5651 67.8799 96.7422C67.7913 96.9193 67.6917 97.0964 67.5811 97.2734C67.4704 97.4505 67.3597 97.6165 67.249 97.7715C67.1383 97.9264 67.0277 98.0924 66.917 98.2695C66.7399 98.4023 66.585 98.5684 66.4521 98.7676C66.3193 98.9447 66.1644 99.0996 65.9873 99.2324C65.6995 99.2324 65.5225 99.0996 65.4561 98.834C65.1683 98.7676 65.0244 98.7676 65.0244 98.834C65.0244 98.9004 65.0244 98.9557 65.0244 99C64.9359 99.0443 64.8695 99.1107 64.8252 99.1992C64.8031 99.2878 64.7477 99.3542 64.6592 99.3984C64.4821 99.3542 64.3271 99.2767 64.1943 99.166C64.0837 99.0775 63.9176 99.0443 63.6963 99.0664C63.6077 98.9336 63.5081 98.8229 63.3975 98.7344C63.2868 98.6237 63.1872 98.513 63.0986 98.4023C63.0544 98.2695 62.988 98.1589 62.8994 98.0703C62.833 97.9818 62.7666 97.8932 62.7002 97.8047C62.6338 97.694 62.5674 97.5944 62.501 97.5059C62.4346 97.4173 62.3682 97.3288 62.3018 97.2402C62.1468 97.041 61.9919 96.8529 61.8369 96.6758C61.7041 96.4766 61.5824 96.2773 61.4717 96.0781C61.2946 95.8125 61.1175 95.5469 60.9404 95.2812C60.7855 94.9935 60.6195 94.7168 60.4424 94.4512C60.3538 94.3184 60.2653 94.1855 60.1768 94.0527C60.0882 93.9199 60.0107 93.7871 59.9443 93.6543C59.9001 93.5436 59.8337 93.4108 59.7451 93.2559C59.6787 93.1009 59.5902 93.0013 59.4795 92.957C59.4352 92.7799 59.3577 92.6471 59.2471 92.5586C59.1364 92.4701 59.0257 92.3594 58.915 92.2266C58.7601 92.0495 58.6162 91.8613 58.4834 91.6621C58.3506 91.4408 58.2178 91.2194 58.085 90.998C57.6423 90.3783 57.2217 89.7695 56.8232 89.1719C56.4469 88.5742 56.0706 87.9544 55.6943 87.3125C55.805 86.9583 55.8604 86.6927 55.8604 86.5156C55.8604 86.3385 55.9157 86.1947 56.0264 86.084C56.0264 85.9954 56.0485 85.8626 56.0928 85.6855C56.3805 85.1986 56.6572 84.7559 56.9229 84.3574C57.1663 83.9811 57.3324 83.6712 57.4209 83.4277C57.5316 83.1842 57.6423 82.9297 57.7529 82.6641C57.8636 82.5977 57.9521 82.5202 58.0186 82.4316C58.085 82.321 58.1735 82.2214 58.2842 82.1328C58.3285 81.8893 58.4281 81.6901 58.583 81.5352C58.738 81.3581 58.8376 81.1478 58.8818 80.9043C59.0811 80.7493 59.1917 80.5723 59.2139 80.373C59.5016 80.1738 59.6787 79.9082 59.7451 79.5762C59.9222 79.3991 60.0661 79.1999 60.1768 78.9785C60.3096 78.7572 60.4313 78.5247 60.542 78.2812C60.8076 78.0599 61.0179 77.7721 61.1729 77.418C61.3057 77.3294 61.4053 77.2077 61.4717 77.0527C61.5381 76.8978 61.6266 76.765 61.7373 76.6543C61.9144 76.3665 62.0472 76.1341 62.1357 75.957C62.2464 75.7578 62.3571 75.5586 62.4678 75.3594C62.6227 75.3594 62.7223 75.304 62.7666 75.1934C62.8109 75.0827 62.8994 75.0384 63.0322 75.0605C63.0322 74.8613 63.0876 74.6842 63.1982 74.5293C63.2425 74.5072 63.3089 74.485 63.3975 74.4629C63.486 74.4186 63.5303 74.3743 63.5303 74.3301C63.486 74.0645 63.4971 73.9095 63.5635 73.8652C63.6299 73.821 63.6852 73.7767 63.7295 73.7324C63.973 73.7767 64.139 73.8099 64.2275 73.832C64.3161 73.8542 64.46 73.9316 64.6592 74.0645C64.8805 74.0645 65.0355 74.1087 65.124 74.1973C65.2126 74.2858 65.3122 74.3522 65.4229 74.3965C65.5114 74.485 65.5778 74.5736 65.6221 74.6621C65.6885 74.7507 65.777 74.8171 65.8877 74.8613C66.0648 75.1048 66.2529 75.3704 66.4521 75.6582C66.6514 75.946 66.8395 76.2116 67.0166 76.4551C67.2601 76.7871 67.5036 77.1081 67.7471 77.418C68.0127 77.7057 68.2562 78.0267 68.4775 78.3809C68.5439 78.4915 68.6657 78.6908 68.8428 78.9785C69.0199 79.2441 69.2191 79.5319 69.4404 79.8418C69.6618 80.1517 69.861 80.4395 70.0381 80.7051C70.2152 80.9486 70.3369 81.0924 70.4033 81.1367C70.4697 81.2474 70.6136 81.4577 70.835 81.7676C71.0563 82.0775 71.2887 82.4095 71.5322 82.7637C71.7979 83.0957 72.0524 83.4167 72.2959 83.7266C72.5394 84.0365 72.7054 84.2357 72.7939 84.3242C73.0374 84.6562 73.2145 84.9329 73.3252 85.1543C73.458 85.3535 73.5798 85.5749 73.6904 85.8184ZM66.0869 92.0605C66.3304 91.7285 66.5186 91.4297 66.6514 91.1641C66.7842 90.8984 66.917 90.6328 67.0498 90.3672C67.2712 90.1016 67.404 89.9134 67.4482 89.8027C67.4925 89.6921 67.5479 89.5814 67.6143 89.4707C67.7913 89.2051 67.9684 88.9395 68.1455 88.6738C68.3447 88.4082 68.4997 88.1204 68.6104 87.8105C68.7432 87.722 68.8428 87.6113 68.9092 87.4785C68.9756 87.3457 69.0752 87.224 69.208 87.1133C69.0752 86.6484 68.9202 86.2943 68.7432 86.0508C68.5661 85.7852 68.389 85.5306 68.2119 85.2871C68.1455 85.1764 68.0791 85.0658 68.0127 84.9551C67.9463 84.8444 67.8799 84.7337 67.8135 84.623C67.7249 84.5566 67.6475 84.4902 67.5811 84.4238C67.5368 84.3574 67.4814 84.291 67.415 84.2246C67.3708 84.1139 67.3044 83.9701 67.2158 83.793C67.1273 83.6823 67.0387 83.5827 66.9502 83.4941C66.8617 83.4056 66.7842 83.2949 66.7178 83.1621C66.6292 83.0736 66.5186 82.9518 66.3857 82.7969C66.2529 82.6419 66.109 82.4759 65.9541 82.2988C65.8213 82.0996 65.6995 81.9225 65.5889 81.7676C65.4782 81.5905 65.3896 81.4466 65.3232 81.3359C65.279 81.2253 65.2347 81.1367 65.1904 81.0703C65.1683 80.9818 65.1351 80.8932 65.0908 80.8047C64.9801 80.6497 64.8695 80.5169 64.7588 80.4062C64.6481 80.2734 64.5374 80.1296 64.4268 79.9746C64.3604 80.0189 64.2939 80.0521 64.2275 80.0742C64.1833 80.0742 64.139 80.0964 64.0947 80.1406C63.9398 80.4284 63.7627 80.694 63.5635 80.9375C63.3864 81.181 63.2093 81.4466 63.0322 81.7344C62.8773 82 62.7223 82.2767 62.5674 82.5645C62.4124 82.8301 62.2575 83.0957 62.1025 83.3613C61.9919 83.5163 61.8812 83.6712 61.7705 83.8262C61.682 83.959 61.5824 84.1139 61.4717 84.291C61.361 84.446 61.2614 84.612 61.1729 84.7891C61.1064 84.944 61.0179 85.099 60.9072 85.2539C60.7301 85.4753 60.5863 85.6745 60.4756 85.8516C60.3649 86.0286 60.2542 86.2389 60.1436 86.4824C60.21 86.6152 60.3096 86.8034 60.4424 87.0469C60.5973 87.2682 60.7523 87.5007 60.9072 87.7441C61.0622 87.9655 61.195 88.1758 61.3057 88.375C61.4385 88.5742 61.516 88.707 61.5381 88.7734C61.7152 88.9284 61.859 89.1055 61.9697 89.3047C62.0804 89.4818 62.2243 89.6589 62.4014 89.8359C62.4899 90.013 62.5895 90.168 62.7002 90.3008C62.8109 90.4336 62.9215 90.5775 63.0322 90.7324C63.1429 90.8874 63.2868 91.1198 63.4639 91.4297C63.641 91.7174 63.818 92.0163 63.9951 92.3262C64.1722 92.6361 64.3493 92.9238 64.5264 93.1895C64.7035 93.4551 64.8473 93.6211 64.958 93.6875C65.1794 93.444 65.3564 93.1784 65.4893 92.8906C65.6442 92.5807 65.8434 92.304 66.0869 92.0605ZM90.0264 74.4297C90.292 74.3633 90.4801 74.3411 90.5908 74.3633C90.7015 74.3633 90.8122 74.3743 90.9229 74.3965C91.0557 74.485 91.1663 74.5957 91.2549 74.7285C91.2549 75.1934 91.2438 75.6582 91.2217 76.123C91.2217 76.5658 91.2217 77.0195 91.2217 77.4844C91.2217 78.3255 91.2327 79.1667 91.2549 80.0078C91.277 80.849 91.277 81.6901 91.2549 82.5312C91.2992 82.7305 91.3102 82.8411 91.2881 82.8633C91.266 82.8854 91.2549 82.9186 91.2549 82.9629C91.2549 83.804 91.277 84.6341 91.3213 85.4531C91.3656 86.2721 91.3877 87.1022 91.3877 87.9434V92.3594C91.3877 93.3112 91.4098 94.252 91.4541 95.1816C91.5205 96.1113 91.5537 97.041 91.5537 97.9707C91.5537 98.0592 91.4984 98.181 91.3877 98.3359C91.3434 98.513 91.277 98.6569 91.1885 98.7676C90.9893 98.7897 90.8011 98.7565 90.624 98.668C90.5355 98.668 90.4691 98.7012 90.4248 98.7676C90.4027 98.8118 90.3584 98.8561 90.292 98.9004C90.1149 98.9004 89.971 98.9447 89.8604 99.0332C89.7497 99.1217 89.6169 99.166 89.4619 99.166C89.3291 99.166 89.1963 99.1439 89.0635 99.0996C88.9528 99.0775 88.82 99.0664 88.665 99.0664C88.6208 99.0664 88.5544 99.0996 88.4658 99.166C88.3773 99.2546 88.3109 99.3099 88.2666 99.332C88.1559 99.332 88.0563 99.3431 87.9678 99.3652C87.8792 99.4095 87.7796 99.4316 87.6689 99.4316C87.5583 99.3431 87.5029 99.2103 87.5029 99.0332C87.5251 98.8561 87.4587 98.7454 87.3037 98.7012C87.3037 98.5905 87.3037 98.4688 87.3037 98.3359C87.3258 98.2031 87.3369 98.0703 87.3369 97.9375C87.3369 97.0742 87.3148 96.2109 87.2705 95.3477C87.2262 94.4622 87.193 93.5879 87.1709 92.7246C87.1488 92.3483 87.1377 91.9831 87.1377 91.6289C87.1598 91.2526 87.1709 90.8763 87.1709 90.5C87.1709 90.3008 87.1709 90.1016 87.1709 89.9023C87.1709 89.7031 87.1488 89.515 87.1045 89.3379C86.9717 89.3158 86.8499 89.3379 86.7393 89.4043C86.6507 89.4486 86.5511 89.4707 86.4404 89.4707C85.9756 89.6257 85.6657 89.7806 85.5107 89.9355C85.3779 89.9355 85.2673 89.9577 85.1787 90.002C85.0902 90.0462 84.9906 90.0905 84.8799 90.1348C84.7028 90.179 84.5257 90.2233 84.3486 90.2676C84.1937 90.2897 84.0277 90.334 83.8506 90.4004C83.7399 90.4447 83.6292 90.4889 83.5186 90.5332C83.4079 90.5775 83.2972 90.6217 83.1865 90.666C82.943 90.7546 82.6995 90.8431 82.4561 90.9316C82.2126 90.998 81.9691 91.0755 81.7256 91.1641C81.4821 91.2083 81.2718 91.2747 81.0947 91.3633C80.9176 91.4518 80.7406 91.5404 80.5635 91.6289C80.4085 92.6693 80.32 93.6654 80.2979 94.6172C80.2979 95.5469 80.3311 96.4766 80.3975 97.4062C80.3532 97.5391 80.3311 97.694 80.3311 97.8711C80.3311 98.026 80.2979 98.1589 80.2314 98.2695C79.988 98.3359 79.8219 98.347 79.7334 98.3027C79.667 98.2363 79.5895 98.181 79.501 98.1367C79.4124 98.1589 79.335 98.2031 79.2686 98.2695C79.2243 98.3359 79.18 98.3913 79.1357 98.4355C78.9587 98.4355 78.8148 98.4798 78.7041 98.5684C78.6156 98.6348 78.527 98.6901 78.4385 98.7344C78.3721 98.7565 78.3057 98.7565 78.2393 98.7344C78.1729 98.7122 78.0954 98.7233 78.0068 98.7676C77.7855 98.7676 77.6748 98.7454 77.6748 98.7012C77.6969 98.6348 77.6748 98.6016 77.6084 98.6016C77.5199 98.6016 77.4535 98.6458 77.4092 98.7344C77.387 98.8008 77.3317 98.8561 77.2432 98.9004C77.1546 98.9447 77.055 98.9779 76.9443 99C76.8337 99 76.723 99.0221 76.6123 99.0664C76.5016 98.9557 76.4463 98.834 76.4463 98.7012C76.4463 98.5684 76.391 98.4466 76.2803 98.3359C76.236 98.026 76.2028 97.7272 76.1807 97.4395C76.1807 97.1296 76.1475 96.8197 76.0811 96.5098C76.1253 95.89 76.1364 95.3919 76.1143 95.0156C76.1143 94.6393 76.1143 94.252 76.1143 93.8535C76.1143 93.4993 76.1032 93.1452 76.0811 92.791C76.0589 92.4368 76.0368 92.0827 76.0146 91.7285C75.9704 91.0866 75.9261 90.4336 75.8818 89.7695C75.8597 89.1055 75.8486 88.4414 75.8486 87.7773C75.8486 87.224 75.8708 86.6816 75.915 86.1504C75.9814 85.6191 76.0146 85.0768 76.0146 84.5234C76.0146 84.1471 76.0146 83.7819 76.0146 83.4277C76.0368 83.0514 76.0479 82.6751 76.0479 82.2988C76.0479 81.9889 76.0368 81.6901 76.0146 81.4023C76.0146 81.0924 76.0146 80.7936 76.0146 80.5059C76.0146 80.1738 76.0368 79.8529 76.0811 79.543C76.1253 79.2109 76.1475 78.89 76.1475 78.5801C76.1475 78.2038 76.1253 77.8385 76.0811 77.4844C76.0368 77.1081 76.0146 76.7318 76.0146 76.3555C76.0146 76.2448 76.0257 76.1452 76.0479 76.0566C76.07 75.946 76.0811 75.8353 76.0811 75.7246C76.0589 75.4811 76.07 75.3372 76.1143 75.293C76.1585 75.2266 76.2028 75.1491 76.2471 75.0605C76.3577 75.0384 76.4795 75.0052 76.6123 74.9609C76.7451 74.9167 76.8669 74.9167 76.9775 74.9609C77.1104 74.8281 77.2874 74.7617 77.5088 74.7617C77.7523 74.7617 77.9294 74.6842 78.04 74.5293C78.195 74.5514 78.2946 74.5625 78.3389 74.5625C78.4053 74.5404 78.4606 74.5293 78.5049 74.5293C78.7041 74.5736 78.8037 74.5736 78.8037 74.5293C78.8258 74.4629 78.8701 74.4297 78.9365 74.4297C79.0472 74.4297 79.2132 74.4408 79.4346 74.4629C79.6781 74.4629 79.8441 74.5072 79.9326 74.5957C80.154 75.7689 80.2757 76.9642 80.2979 78.1816C80.32 79.3991 80.3311 80.6055 80.3311 81.8008C80.3311 82.1107 80.3421 82.4316 80.3643 82.7637C80.3864 83.0736 80.3753 83.3835 80.3311 83.6934C80.3311 83.8262 80.32 83.959 80.2979 84.0918C80.2757 84.2025 80.2646 84.3242 80.2646 84.457C80.2646 84.8333 80.2425 85.2318 80.1982 85.6523C80.154 86.0508 80.1318 86.4382 80.1318 86.8145C80.3975 86.9694 80.6188 87.0247 80.7959 86.9805C80.9951 86.9141 81.1833 86.8477 81.3604 86.7812C81.5817 86.7148 81.7809 86.6484 81.958 86.582C82.1572 86.4935 82.3564 86.416 82.5557 86.3496C82.7327 86.2611 82.9209 86.1947 83.1201 86.1504C83.3415 86.084 83.5407 86.0286 83.7178 85.9844C84.2933 85.7852 84.8577 85.5417 85.4111 85.2539C85.9645 84.9661 86.529 84.7337 87.1045 84.5566C87.0602 83.3392 87.0381 82.1328 87.0381 80.9375C87.0381 79.7201 87.0381 78.5137 87.0381 77.3184C87.0381 76.9863 87.0381 76.6432 87.0381 76.2891C87.0381 75.9349 87.0602 75.5918 87.1045 75.2598C87.1266 75.1712 87.1488 75.1048 87.1709 75.0605C87.2152 74.9941 87.2373 74.9056 87.2373 74.7949C87.3037 74.6842 87.3812 74.6068 87.4697 74.5625C87.5583 74.5182 87.6247 74.4518 87.6689 74.3633C87.7132 74.4076 87.7575 74.4518 87.8018 74.4961C87.8682 74.5182 87.9346 74.5404 88.001 74.5625C88.1781 74.5182 88.2777 74.485 88.2998 74.4629C88.3441 74.4408 88.3883 74.4186 88.4326 74.3965C88.5433 74.3522 88.6872 74.3301 88.8643 74.3301C89.0413 74.3301 89.1852 74.3301 89.2959 74.3301H89.6943L90.0264 74.4297Z" fill="#8F624F"/>
</svg>
